<svg width="223" height="92" viewBox="0 0 223 92" fill="none" xmlns="http://www.w3.org/2000/svg">
<path d="M68.192 77.2536C67.6783 77.2536 67.2619 77.67 67.2619 78.1837V79.893C67.2619 80.399 67.6722 80.8092 68.1782 80.8092H71.4124C72.3252 80.8092 73.0651 81.5491 73.0651 82.4619V82.4619C73.0651 83.3746 72.3252 84.1145 71.4125 84.1145H68.1782C67.6722 84.1145 67.2619 84.5247 67.2619 85.0308V87.0405C67.2619 87.5542 67.6783 87.9706 68.192 87.9706H72.1101C73.0574 87.9706 73.8253 88.7385 73.8253 89.6858V89.6858C73.8253 90.6331 73.0574 91.401 72.1101 91.401H67.8889C65.1494 91.401 62.9286 89.1802 62.9286 86.4407V78.7835C62.9286 76.044 65.1494 73.8232 67.8889 73.8232H72.1101C73.0574 73.8232 73.8253 74.5911 73.8253 75.5384V75.5384C73.8253 76.4857 73.0574 77.2536 72.1101 77.2536H68.192Z" fill="#2E3C47"/>
<path d="M83.0752 91.5763C81.7744 91.5763 80.6087 91.3677 79.5782 90.9503C78.5476 90.533 77.7198 89.9153 77.0947 89.0974C76.7529 88.6377 76.5019 88.1253 76.3415 87.5602C76.1267 86.8036 76.7819 86.1427 77.5684 86.1427H79.4861C80.2008 86.1427 80.7366 86.7338 81.1436 87.3213C81.2262 87.4406 81.3211 87.5485 81.4281 87.6451C81.8166 87.9789 82.3235 88.1459 82.9485 88.1459C83.5905 88.1459 84.0973 88.004 84.469 87.7202C84.8407 87.4197 85.0265 87.0107 85.0265 86.4933C85.0265 86.0592 84.8745 85.7003 84.5704 85.4165C84.2832 85.1328 83.92 84.8991 83.4807 84.7154C83.0584 84.5318 82.4502 84.3231 81.6561 84.0894C80.5073 83.7389 79.5697 83.3883 78.8433 83.0378C78.1168 82.6872 77.4917 82.1697 76.968 81.4853C76.4443 80.8009 76.1824 79.9078 76.1824 78.8061C76.1824 77.1701 76.7822 75.8931 77.9817 74.975C79.1811 74.0402 80.7439 73.5728 82.6698 73.5728C84.6295 73.5728 86.2091 74.0402 87.4086 74.975C88.2325 75.6056 88.7934 76.4096 89.0912 77.3868C89.324 78.1506 88.6648 78.8311 87.8663 78.8311H85.9609C85.2226 78.8311 84.6752 78.1703 84.1614 77.6402C84.1152 77.5925 84.0657 77.5471 84.0129 77.504C83.6243 77.1701 83.1259 77.0032 82.5177 77.0032C81.994 77.0032 81.5717 77.1451 81.2507 77.4289C80.9297 77.696 80.7692 78.0883 80.7692 78.6057C80.7692 79.1733 81.0395 79.6157 81.5801 79.9328C82.1207 80.25 82.9654 80.5922 84.1142 80.9595C85.263 81.3434 86.1922 81.7107 86.9018 82.0612C87.6282 82.4118 88.2533 82.9209 88.777 83.5886C89.3007 84.2564 89.5626 85.1161 89.5626 86.1677C89.5626 87.1693 89.3007 88.0791 88.777 88.8971C88.2702 89.715 87.5269 90.3661 86.547 90.8502C85.5671 91.3343 84.4099 91.5763 83.0752 91.5763Z" fill="#2E3C47"/>
<path d="M103.311 73.8232C104.259 73.8232 105.027 74.5911 105.027 75.5384V75.5384C105.027 76.4857 104.259 77.2536 103.311 77.2536H100.313V89.2344C100.313 90.431 99.3432 91.401 98.1465 91.401V91.401C96.9499 91.401 95.9799 90.431 95.9799 89.2344V77.2536H92.9816C92.0343 77.2536 91.2664 76.4857 91.2664 75.5384V75.5384C91.2664 74.5911 92.0343 73.8232 92.9816 73.8232H103.311Z" fill="#2E3C47"/>
<path d="M111.989 88.9962C111.989 88.3533 113.311 86.9909 112.774 87.3446V87.3446C114.43 85.9925 115.731 84.8824 116.677 84.0143C117.64 83.1463 118.451 82.2365 119.11 81.285C119.769 80.3335 120.098 79.407 120.098 78.5056C120.098 77.8212 119.937 77.287 119.616 76.903C119.295 76.5191 118.814 76.3271 118.172 76.3271C117.53 76.3271 117.023 76.5692 116.652 77.0533C116.643 77.0647 116.634 77.0763 116.626 77.0879C115.956 78.0115 115.195 79.0565 114.054 79.0565V79.0565C112.893 79.0565 111.917 78.0838 112.228 76.9662C112.378 76.4281 112.586 75.9396 112.85 75.5008C113.442 74.5493 114.21 73.8482 115.156 73.3975C116.119 72.9468 117.184 72.7214 118.349 72.7214C120.36 72.7214 121.872 73.2305 122.885 74.2488C123.916 75.2671 124.431 76.5942 124.431 78.2301C124.431 80.0163 123.815 81.6773 122.581 83.213C121.348 84.7321 119.777 86.2178 117.868 87.6701H122.97C123.931 87.6701 124.71 88.4493 124.71 89.4104V89.4104C124.71 90.3715 123.931 91.1506 122.97 91.1506H114.128C112.947 91.1506 111.989 90.1777 111.989 88.9962V88.9962Z" fill="#2E3C47"/>
<path d="M126.618 82.0111C126.618 79.1399 127.175 76.878 128.29 75.2254C129.422 73.5728 131.239 72.7464 133.739 72.7464C136.239 72.7464 138.047 73.5728 139.162 75.2254C140.294 76.878 140.86 79.1399 140.86 82.0111C140.86 84.9158 140.294 87.1944 139.162 88.847C138.047 90.4996 136.239 91.3259 133.739 91.3259C131.239 91.3259 129.422 90.4996 128.29 88.847C127.175 87.1944 126.618 84.9158 126.618 82.0111ZM136.602 82.0111C136.602 80.3251 136.417 79.0314 136.045 78.13C135.673 77.2119 134.905 76.7528 133.739 76.7528C132.573 76.7528 131.804 77.2119 131.433 78.13C131.061 79.0314 130.875 80.3251 130.875 82.0111C130.875 83.1463 130.943 84.0894 131.078 84.8406C131.213 85.5751 131.483 86.1761 131.889 86.6435C132.311 87.0942 132.928 87.3196 133.739 87.3196C134.55 87.3196 135.158 87.0942 135.563 86.6435C135.986 86.1761 136.265 85.5751 136.4 84.8406C136.535 84.0894 136.602 83.1463 136.602 82.0111Z" fill="#2E3C47"/>
<path d="M142.997 88.9962C142.997 88.3533 144.32 86.9909 143.783 87.3446V87.3446C145.438 85.9925 146.739 84.8824 147.685 84.0143C148.648 83.1463 149.459 82.2365 150.118 81.285C150.777 80.3335 151.106 79.407 151.106 78.5056C151.106 77.8212 150.946 77.287 150.625 76.903C150.304 76.5191 149.822 76.3271 149.18 76.3271C148.538 76.3271 148.032 76.5692 147.66 77.0533C147.651 77.0647 147.643 77.0763 147.634 77.0879C146.964 78.0115 146.203 79.0565 145.062 79.0565V79.0565C143.902 79.0565 142.925 78.0838 143.237 76.9662C143.386 76.4281 143.594 75.9396 143.859 75.5008C144.45 74.5493 145.219 73.8482 146.165 73.3975C147.128 72.9468 148.192 72.7214 149.358 72.7214C151.368 72.7214 152.88 73.2305 153.894 74.2488C154.924 75.2671 155.44 76.5942 155.44 78.2301C155.44 80.0163 154.823 81.6773 153.59 83.213C152.356 84.7321 150.785 86.2178 148.876 87.6701H153.978C154.939 87.6701 155.718 88.4493 155.718 89.4104V89.4104C155.718 90.3715 154.939 91.1506 153.978 91.1506H145.136C143.955 91.1506 142.997 90.1777 142.997 88.9962V88.9962Z" fill="#2E3C47"/>
<path d="M157.626 82.0111C157.626 79.1399 158.184 76.878 159.299 75.2254C160.431 73.5728 162.247 72.7464 164.747 72.7464C167.248 72.7464 169.055 73.5728 170.17 75.2254C171.302 76.878 171.868 79.1399 171.868 82.0111C171.868 84.9158 171.302 87.1944 170.17 88.847C169.055 90.4996 167.248 91.3259 164.747 91.3259C162.247 91.3259 160.431 90.4996 159.299 88.847C158.184 87.1944 157.626 84.9158 157.626 82.0111ZM167.611 82.0111C167.611 80.3251 167.425 79.0314 167.053 78.13C166.682 77.2119 165.913 76.7528 164.747 76.7528C163.581 76.7528 162.813 77.2119 162.441 78.13C162.069 79.0314 161.884 80.3251 161.884 82.0111C161.884 83.1463 161.951 84.0894 162.086 84.8406C162.222 85.5751 162.492 86.1761 162.897 86.6435C163.32 87.0942 163.936 87.3196 164.747 87.3196C165.558 87.3196 166.166 87.0942 166.572 86.6435C166.994 86.1761 167.273 85.5751 167.408 84.8406C167.543 84.0894 167.611 83.1463 167.611 82.0111Z" fill="#2E3C47"/>
<path fill-rule="evenodd" clip-rule="evenodd" d="M14.2705 3.5587C18.7459 1.18623 23.9761 0 29.9612 0H43.7916C47.9011 0 51.2325 3.3314 51.2325 7.44091V49.3365C51.2325 53.446 47.9011 56.7774 43.7916 56.7774H29.9612C24.03 56.7774 18.8268 55.5912 14.3514 53.2187C9.82217 50.8462 6.34435 47.5032 3.91797 43.1897C1.43766 38.8761 0.19751 33.9424 0.19751 28.3887C0.19751 22.7811 1.43766 17.8474 3.91797 13.5878C6.34435 9.27418 9.79521 5.93116 14.2705 3.5587ZM18.638 40.5206C21.5497 43.3784 25.6206 44.8072 30.8508 44.8072H35.6227C36.6054 44.8072 37.4021 44.0106 37.4021 43.0279V13.5878C37.4021 12.605 36.6054 11.8084 35.6227 11.8084H30.8508C25.6206 11.8084 21.5497 13.2642 18.638 16.1759C15.7264 19.0876 14.2705 23.1585 14.2705 28.3887C14.2705 33.6189 15.7264 37.6629 18.638 40.5206ZM93.0142 55.2468C93.7485 56.2112 94.891 56.7774 96.1032 56.7774H103.083C106.325 56.7774 108.139 53.0394 106.133 50.4929L88.2753 27.8225L105.301 6.2901C107.314 3.74469 105.501 0 102.256 0H95.9438C94.7303 0 93.5866 0.567412 92.8525 1.53366L75.0919 24.9109V3.88222C75.0919 1.73813 73.3538 0 71.2097 0H65.1437C62.9997 0 61.2615 1.73812 61.2615 3.88221V52.8952C61.2615 55.0393 62.9997 56.7774 65.1437 56.7774H71.2097C73.3538 56.7774 75.0919 55.0393 75.0919 52.8952V31.7048L93.0142 55.2468ZM130.693 50.4688C130.461 50.8751 130.266 51.3077 130.111 51.7629L129.968 52.1876C129.038 54.9312 126.464 56.7774 123.567 56.7774C118.882 56.7774 115.619 52.126 117.213 47.7205L131.755 7.52937C133.39 3.01046 137.68 0 142.486 0C147.292 0 151.582 3.01045 153.217 7.52936L167.723 47.6193C169.335 52.074 166.035 56.7774 161.297 56.7774C158.368 56.7774 155.765 54.9106 154.825 52.1364L154.699 51.7629C154.545 51.3077 154.349 50.8751 154.117 50.4688H154.273L147.722 31.0577L147.325 29.8843C147.288 29.734 147.245 29.5835 147.194 29.4334C147.141 29.2772 147.083 29.1264 147.019 28.981L142.384 15.2862L130.575 50.4688H130.693ZM209.042 55.2468C209.776 56.2112 210.918 56.7774 212.131 56.7774H219.111C222.352 56.7774 224.166 53.0394 222.16 50.4929L204.303 27.8225L221.328 6.2901C223.341 3.74469 221.528 0 218.283 0H211.971C210.758 0 209.614 0.567412 208.88 1.53366L191.119 24.9109V3.88222C191.119 1.73813 189.381 0 187.237 0H181.171C179.027 0 177.289 1.73812 177.289 3.88221V52.8952C177.289 55.0393 179.027 56.7774 181.171 56.7774H187.237C189.381 56.7774 191.119 55.0393 191.119 52.8952V31.7048L209.042 55.2468Z" fill="#2E3C47"/>
</svg>
